<?xml version="1.0" encoding="UTF-8"?>
<svg width="88px" height="68px" viewBox="0 0 88 68" version="1.1" xmlns="http://www.w3.org/2000/svg" xmlns:xlink="http://www.w3.org/1999/xlink">
    <!-- Generator: Sketch 46 (44423) - http://www.bohemiancoding.com/sketch -->
    <title>Fill 3</title>
    <desc>Created with Sketch.</desc>
    <defs></defs>
    <g id="Page-1" stroke="none" stroke-width="1" fill="none" fill-rule="evenodd">
        <g id="iStock-607769640" transform="translate(-119.000000, -92.000000)" fill="#8B743D">
            <path d="M202.975135,121.760892 C201.701081,126.976454 198.541081,131.45246 194.054054,134.372565 C190.684324,136.562372 186.782703,137.723443 182.776216,137.723443 C181.51027,137.723443 180.227027,137.600365 178.978919,137.362923 L177.075676,137.011116 L178.105946,135.366447 C183.334595,127.020022 191.871892,121.470624 201.525946,120.134194 L203.429189,119.870067 L202.975135,121.760892 Z M175.548108,121.602415 C174.614054,114.118625 179.101081,107.038378 186.215676,104.769605 C186.232973,104.760892 186.268108,104.743465 186.311351,104.725493 L187.795676,104.02188 L188.196757,105.613724 C188.964865,109.16719 188.990811,112.746252 188.275676,116.26432 L188.118378,117.046899 L187.358919,117.266914 C183.815135,118.304908 180.558919,120.054683 177.687027,122.455792 L175.844865,123.986097 L175.548108,121.602415 Z M171.235676,108.47229 C167.691892,112.201115 165.282703,116.827428 164.287568,121.839858 C164.296216,121.79629 164.304865,121.743465 164.322162,121.699353 C163.973514,123.458387 163.781081,125.27896 163.781081,127.1431 C163.781081,127.407227 163.781081,127.662096 163.79027,127.916966 C162.656757,125.448872 161.818919,122.817401 161.289189,120.0732 C161.370811,120.377627 161.447027,120.675519 161.517297,120.965787 C161.431351,120.605267 161.336757,120.235488 161.232432,119.85264 L161.205946,119.729017 C159.843784,112.412417 160.821622,104.980907 164.016757,98.2617248 L164.854595,96.4939774 L166.164324,97.9447719 C168.591351,100.627435 170.397838,103.723443 171.532432,107.135315 L171.785946,107.891754 L171.235676,108.47229 Z M164.557838,156.482477 L164.549189,157.643548 L153.925946,157.643548 L154.921081,155.717324 C156.910811,151.874135 157.932973,147.73142 157.967027,143.387205 C157.993514,140.370707 157.522162,137.389063 156.562162,134.531042 L154.65027,128.814454 L158.752973,133.202781 C164.531892,139.385539 166.749189,148.285815 164.557838,156.482477 Z M149.473514,137.21316 C149.168649,137.221873 148.854054,137.230587 148.54,137.230587 C137.523243,137.230587 127.816757,130.142171 124.394595,119.588512 L123.957838,118.216684 L125.346486,117.891562 C128.924865,117.055613 132.66973,117.002787 136.249189,117.741799 L137.025946,117.900275 L137.244324,118.664883 C138.047027,121.427057 139.269189,124.020951 140.884324,126.369778 C143.215135,129.808335 146.392432,132.701211 150.058378,134.741799 L154.196216,137.037257 L149.473514,137.21316 Z M142.621622,103.652646 L143.014054,102.298244 L144.332432,102.781843 C147.343784,103.90806 150.084865,105.552185 152.458919,107.680997 L153.052973,108.208162 L152.86973,108.982573 C152.188649,111.752371 151.961622,114.610937 152.188649,117.478216 C152.267027,118.489525 152.407027,119.509546 152.616216,120.600365 L153.122703,123.194804 L150.765405,122.042446 C144.027027,118.753107 140.525946,110.855427 142.621622,103.652646 Z M205.716216,117.046899 C200.906486,115.015569 195.765405,114.443747 190.841622,115.164787 C191.557297,110.169785 190.946486,104.989621 188.938378,100.143836 L188.397838,98.8596873 L187.027027,99.0355907 C181.841622,99.6950923 177.110811,101.779248 173.209189,104.88397 C171.349189,100.196117 168.241622,96.0278063 164.104324,92.8441184 L163.003784,92 L162.995676,92 L161.895676,92.8441184 C157.757838,96.0278063 154.65027,100.196117 152.790811,104.88397 C148.888649,101.779248 144.149189,99.6950923 138.972432,99.0355907 L137.593514,98.8596873 L137.061081,100.15255 C135.052973,104.989621 134.432973,110.169785 135.157838,115.164787 C130.234595,114.443747 125.092973,115.015569 120.283243,117.055613 L119,117.592036 L119.174595,118.981836 C120.396757,128.568298 126.289189,136.791101 134.930811,140.959956 C141.398919,144.082105 148.801622,144.574417 155.584324,142.402037 C155.75027,147.546803 154.336216,152.736225 151.350811,157.124552 L149.395135,160 L176.604324,160 L174.649189,157.115838 C172.108649,153.386468 170.721081,149.077108 170.458919,144.706208 L170.642162,142.47229 C177.363784,144.55699 184.661622,144.037993 191.06,140.959956 C199.710811,136.791101 205.603243,128.568298 206.816757,118.981836 L207,117.592036 L205.716216,117.046899 L205.716216,117.046899 Z" id="Fill-3"></path>
        </g>
    </g>
</svg>